<svg width="120" height="120" viewBox="0 0 120 120" fill="none" xmlns="http://www.w3.org/2000/svg">
  <rect width="120" height="120" rx="30" fill="#4F46E5"/>
  <path d="M30 36C30 32.6863 32.6863 30 36 30H84C87.3137 30 90 32.6863 90 36V84C90 87.3137 87.3137 90 84 90H36C32.6863 90 30 87.3137 30 84V36Z" fill="url(#paint0_linear_1_2)"/>
  <path d="M42 35H78V45H42V35Z" fill="white"/>
  <path d="M42 53H78V63H42V53Z" fill="white"/>
  <path d="M42 71H68V81H42V71Z" fill="white"/>
  <path d="M76 71H84V81H76V71Z" fill="#F97316"/>
  <defs>
    <linearGradient id="paint0_linear_1_2" x1="30" y1="30" x2="90" y2="90" gradientUnits="userSpaceOnUse">
      <stop stop-color="#818CF8"/>
      <stop offset="1" stop-color="#4338CA"/>
    </linearGradient>
  </defs>
</svg>
